# Blender v2.90.0 OBJ File: 'Rock.blend'
# www.blender.org
mtllib BigRock.mtl
o Plane_Plane.002
v -1.238741 0.869884 4.369556
v -0.398881 1.293531 5.358402
v -0.897157 0.909702 3.589066
v 0.317321 1.197692 3.295395
v 0.857691 1.529848 4.356335
v 0.501578 1.529531 5.022930
v 0.061330 1.124587 5.900410
v 0.428408 1.345784 5.517076
v 1.619560 0.899310 4.152738
v 1.389916 0.738961 3.625806
v 0.866461 0.645707 3.000826
v 0.512260 0.869449 2.968425
v 1.005577 1.243788 5.324137
v 1.527008 0.599424 5.269855
v 0.551167 1.077970 5.794718
v 1.042833 0.849911 5.789896
v 1.334611 0.541698 5.706366
v 0.734716 0.125455 5.906223
v 1.272040 -0.098215 5.695383
v 1.282666 -0.601547 5.717165
v 0.980029 -0.616014 5.850942
v -0.147335 -0.147692 6.261768
v -0.101897 0.351543 6.202335
v 0.042090 0.879964 6.051457
v 1.704479 -1.348945 4.900040
v 2.036155 -0.858262 4.296373
v 1.975497 -0.044073 4.447388
v 1.036363 0.154847 2.999007
v 1.548779 -0.739918 3.393383
v 1.856885 -1.067265 3.797912
v 1.394076 -1.789372 4.707887
v 1.664039 -1.445265 3.797014
v 0.758972 -1.389699 3.125364
v -0.130098 -0.363373 2.609989
v -0.103822 0.013648 2.615514
v -0.708554 0.075058 2.912538
v -0.991076 0.515327 3.343982
v -0.807992 -0.522829 2.931176
v -1.578688 -0.638101 4.416906
v -1.311335 -1.047796 3.734053
v -0.128190 -2.000309 4.146044
v -0.620818 -1.897312 4.293828
v -0.675905 -1.397732 5.727333
v -0.997043 -1.052555 5.601587
v -1.543448 -0.827733 4.490473
v -0.092523 -2.073586 4.347800
v 0.620625 -2.096623 4.881331
v -0.499426 -1.308667 5.972528
v 0.171900 -1.747647 5.473944
vt 0.042888 0.411080
vt 0.020315 0.313986
vt 0.232138 0.476226
vt 0.125652 0.476226
vt 0.107030 0.327680
vt 0.184128 0.377282
vt 0.023577 0.223903
vt 0.072144 0.265328
vt 0.310719 0.352436
vt 0.283987 0.304639
vt 0.284367 0.469448
vt 0.318763 0.429505
vt 0.135983 0.248646
vt 0.206386 0.170967
vt 0.071938 0.207683
vt 0.120119 0.164741
vt 0.161373 0.131336
vt 0.554588 0.048988
vt 0.593249 0.020315
vt 0.618128 0.116713
vt 0.549632 0.130614
vt 0.578405 0.198905
vt 0.541364 0.190400
vt 0.721050 0.111732
vt 0.720436 0.171568
vt 0.707481 0.048736
vt 0.020510 0.187380
vt 0.374981 0.109887
vt 0.182181 0.076465
vt 0.201054 0.027568
vt 0.323560 0.020315
vt 0.327344 0.172573
vt 0.513292 0.056723
vt 0.969611 0.758268
vt 0.862014 0.826710
vt 0.771507 0.829446
vt 0.955223 0.697352
vt 0.751708 0.776914
vt 0.790794 0.711060
vt 0.892570 0.616984
vt 0.946942 0.592994
vt 0.443703 0.306485
vt 0.457241 0.385043
vt 0.387914 0.379959
vt 0.374981 0.324836
vt 0.386864 0.263982
vt 0.712687 0.598647
vt 0.706920 0.754728
vt 0.827428 0.448920
vt 0.870554 0.450461
vt 0.969611 0.545190
vt 0.210968 0.890047
vt 0.156420 0.979685
vt 0.100339 0.965154
vt 0.041000 0.863090
vt 0.169128 0.853735
vt 0.093833 0.834414
vt 0.065657 0.756163
vt 0.020315 0.815893
vt 0.129769 0.625998
vt 0.226511 0.626211
vt 0.294389 0.826203
vt 0.499644 0.724852
vt 0.519563 0.450356
vt 0.606693 0.448920
vt 0.651358 0.631453
vt 0.418928 0.539427
vt 0.444572 0.701788
vt 0.221587 0.599104
vt 0.110556 0.505704
vt 0.275561 0.476226
vt 0.294389 0.517544
vt 0.627397 0.868513
vt 0.706920 0.765250
vt 0.491651 0.753680
vt 0.535581 0.858146
vt 0.827873 0.365027
vt 0.789460 0.402112
vt 0.756372 0.386231
vt 0.466644 0.868513
vt 0.381777 0.848337
vt 0.374981 0.816903
vt 0.620409 0.394909
vt 0.538527 0.448920
vt 0.721050 0.345304
vt 0.721050 0.217973
vt 0.979685 0.316575
vt 0.968165 0.342028
vt 0.729681 0.147456
vt 0.979685 0.097743
vt 0.838034 0.020315
vt 0.739853 0.068470
vt 0.755127 0.032737
vn -0.8065 0.5862 0.0770
vn -0.5387 0.7674 0.3475
vn -0.0258 0.8473 -0.5305
vn -0.5776 0.6891 -0.4376
vn 0.0148 0.9914 0.1301
vn 0.2757 0.9539 -0.1187
vn -0.1792 0.7111 0.6798
vn 0.1320 0.8697 0.4756
vn 0.7071 0.4681 -0.5300
vn 0.8071 0.5536 -0.2052
vn 0.1569 0.5625 -0.8117
vn 0.4503 0.3654 -0.8147
vn 0.5400 0.7629 0.3555
vn 0.8665 0.3483 0.3576
vn 0.2684 0.6304 0.7284
vn 0.4895 0.4250 0.7614
vn 0.7073 0.1684 0.6865
vn 0.3391 0.0508 0.9394
vn 0.6639 0.0015 0.7478
vn 0.3743 -0.2536 0.8919
vn 0.6328 -0.1979 0.7486
vn -0.3075 0.1894 0.9325
vn -0.2457 0.0376 0.9686
vn -0.2313 0.3820 0.8947
vn 0.9893 -0.1447 -0.0132
vn 0.7845 -0.4315 0.4454
vn 0.9877 0.1531 0.0312
vn 0.8623 -0.2548 -0.4377
vn 0.6877 -0.0575 -0.7237
vn 0.5496 0.0791 -0.8316
vn 0.5364 -0.8251 0.1773
vn 0.6236 -0.6755 -0.3935
vn 0.1914 -0.6204 -0.7605
vn -0.0963 -0.2226 -0.9701
vn -0.0979 0.2555 -0.9618
vn -0.7242 0.3483 -0.5951
vn -0.5918 0.2723 -0.7587
vn -0.6170 -0.2639 -0.7414
vn -0.7608 -0.4424 -0.4748
vn -0.9922 0.1107 0.0568
vn -0.0979 -0.8704 -0.4824
vn -0.4984 -0.8550 -0.1431
vn -0.9532 -0.2336 0.1920
vn -0.5543 -0.7169 0.4229
vn -0.8322 -0.1856 0.5224
vn -0.0879 -0.9934 -0.0738
vn 0.1988 -0.9539 0.2249
vn -0.2774 -0.5025 0.8188
vn 0.0614 -0.7825 0.6196
usemtl Material.001
s 1
f 1/1/1 2/2/2 4/3/3 3/4/4
f 6/5/5 5/6/6 4/3/3 2/2/2
f 6/5/5 2/2/2 7/7/7 8/8/8
f 10/9/9 4/3/3 5/6/6 9/10/10
f 12/11/11 4/3/3 10/9/9 11/12/12
f 13/13/13 5/6/6 6/5/5 8/8/8
f 9/10/10 5/6/6 13/13/13 14/14/14
f 13/13/13 8/8/8 15/15/15 16/16/16
f 14/14/14 13/13/13 16/16/16 17/17/17
f 17/18/17 16/19/16 18/20/18 19/21/19
f 21/22/20 20/23/21 19/21/19 18/20/18
f 23/24/22 22/25/23 21/22/20 18/20/18
f 24/26/24 23/24/22 18/20/18 16/19/16
f 8/8/8 7/7/7 24/27/24 15/15/15
f 15/15/15 24/27/24 16/16/16
f 26/28/25 19/29/19 20/30/21 25/31/26
f 26/28/25 27/32/27 14/14/14 19/29/19
f 14/33/14 17/18/17 19/21/19
f 14/14/14 27/32/27 9/10/10
f 9/34/10 27/35/27 26/36/25 10/37/9
f 26/36/25 30/38/28 29/39/29 10/37/9
f 28/40/30 11/41/12 10/37/9 29/39/29
f 25/42/26 31/43/31 32/44/32 30/45/28
f 25/42/26 30/45/28 26/46/25
f 33/47/33 29/39/29 30/38/28 32/48/32
f 34/49/34 28/40/30 29/39/29 33/47/33
f 34/49/34 35/50/35 12/51/11 28/40/30
f 12/51/11 11/41/12 28/40/30
f 3/52/4 4/53/3 12/54/11 35/55/35
f 37/56/36 3/52/4 35/55/35 36/57/37
f 38/58/38 36/57/37 35/55/35 34/59/34
f 40/60/39 39/61/40 37/56/36 36/57/37
f 38/58/38 40/60/39 36/57/37
f 1/62/1 3/52/4 37/56/36 39/61/40
f 41/63/41 38/64/38 34/65/34 33/66/33
f 40/67/39 38/64/38 41/63/41 42/68/42
f 40/60/39 45/69/43 39/61/40
f 40/60/39 42/70/42 45/69/43
f 43/71/44 44/72/45 45/69/43 42/70/42
f 31/73/31 41/63/41 33/66/33 32/74/32
f 42/68/42 41/63/41 46/75/46
f 47/76/47 46/75/46 41/63/41 31/73/31
f 44/77/45 43/78/44 48/79/48
f 49/80/49 48/81/48 43/82/44 42/68/42
f 42/68/42 46/75/46 47/76/47 49/80/49
f 25/42/26 49/83/49 47/84/47 31/43/31
f 21/22/20 49/83/49 25/42/26 20/23/21
f 49/83/49 21/22/20 48/85/48
f 21/22/20 22/25/23 48/85/48
f 48/79/48 22/86/23 44/77/45
f 44/77/45 22/86/23 39/87/40 45/88/43
f 22/86/23 23/89/22 1/90/1 39/87/40
f 2/91/2 1/90/1 23/89/22 24/92/24
f 7/93/7 2/91/2 24/92/24
