# Blender v2.90.0 OBJ File: 'shrub1.blend'
# www.blender.org
mtllib Leaf1Test.mtl
o Plane
v -0.382651 0.210577 0.425828
v 0.382651 0.210577 0.425828
v -0.382651 -0.042018 -0.030961
v 0.382651 -0.042018 -0.030961
v -0.382651 0.290379 0.868288
v 0.382651 0.290379 0.868288
v -0.382651 0.205625 1.440347
v 0.382651 0.205625 1.440347
v -0.382651 -0.009750 1.925644
v 0.382651 -0.009750 1.925644
vt 0.485922 0.636637
vt 0.021245 0.636637
vt 0.021245 0.504322
vt 0.485922 0.504322
vt 0.485922 0.747670
vt 0.021245 0.747670
vt 0.485922 0.880262
vt 0.021245 0.880262
vt 0.485922 0.991741
vt 0.021245 0.991741
vn 0.0000 0.8751 -0.4839
vn 0.0000 0.9841 -0.1775
vn 0.0000 0.9892 0.1466
vn 0.0000 0.9140 0.4056
usemtl Shrub1
s off
f 1/1/1 2/2/1 4/3/1 3/4/1
f 2/2/2 1/1/2 5/5/2 6/6/2
f 6/6/3 5/5/3 7/7/3 8/8/3
f 8/8/4 7/7/4 9/9/4 10/10/4
